HIERARCHY
ROOT Hips
{
	OFFSET 0.00000 0.00000 0.00000
	CHANNELS 6 Xposition Yposition Zposition Zrotation Yrotation Xrotation 
	JOINT LHipJoint
	{
		OFFSET 0 0 0
		CHANNELS 3 Zrotation Yrotation Xrotation
		JOINT LeftHip
		{
			OFFSET 1.84395 -1.68683 0.74144
			CHANNELS 3 Zrotation Yrotation Xrotation
			JOINT LeftKnee
			{
				OFFSET 2.27037 -6.23779 0.00000
				CHANNELS 3 Zrotation Yrotation Xrotation
				JOINT LeftAnkle
				{
					OFFSET 2.56918 -7.05877 0.00000
					CHANNELS 3 Zrotation Yrotation Xrotation
					JOINT LeftToe
					{
						OFFSET 0.22276 -0.61202 1.71784
						CHANNELS 3 Zrotation Yrotation Xrotation
						End Site
						{
							OFFSET 0.00000 -0.00000 0.91613
						}
					}
				}
			}
		}
	}
	JOINT RHipJoint
	{
		OFFSET 0 0 0
		CHANNELS 3 Zrotation Yrotation Xrotation
		JOINT RightHip
		{
			OFFSET -1.76833 -1.68684 0.74144
			CHANNELS 3 Zrotation Yrotation Xrotation
			JOINT RightKnee
			{
				OFFSET -2.49360 -6.85110 0.00000
				CHANNELS 3 Zrotation Yrotation Xrotation
				JOINT RightAnkle
				{
					OFFSET -2.55538 -7.02085 0.00000
					CHANNELS 3 Zrotation Yrotation Xrotation
					JOINT RightToe
					{
						OFFSET -0.21516 -0.59115 1.68050
						CHANNELS 3 Zrotation Yrotation Xrotation
						End Site
						{
							OFFSET -0.00000 -0.00000 0.89604
						}
					}
				}
			}
		}
	}
	JOINT lowerback
	{
		OFFSET 0 0 0
		CHANNELS 3 Zrotation Yrotation Xrotation
		JOINT Chest
		{
			OFFSET 0.06382 1.72312 -0.19613
			CHANNELS 3 Zrotation Yrotation Xrotation
			JOINT Chest2
			{
				OFFSET -0.00055 1.73507 0.23859
				CHANNELS 3 Zrotation Yrotation Xrotation
				JOINT lowerneck
				{
					OFFSET 0 0 0
					CHANNELS 3 Zrotation Yrotation Xrotation
					JOINT Neck
					{
						OFFSET 0.03638 1.65562 0.09633
						CHANNELS 3 Zrotation Yrotation Xrotation
						JOINT Head
						{
							OFFSET 0.06388 1.62807 -0.32386
							CHANNELS 3 Zrotation Yrotation Xrotation
							End Site
							{
								OFFSET 0.00995 1.67644 -0.12021
							}
						}
					}
				}
				JOINT LeftCollar
				{
					OFFSET 0 0 0
					CHANNELS 3 Zrotation Yrotation Xrotation
					JOINT LeftShoulder
					{
						OFFSET 3.09648 1.42991 0.28122
CHANNELS 3 Zrotation Xrotation Yrotation
						JOINT LeftElbow
						{
OFFSET 0 -5.118780 -0.000000
CHANNELS 3 Zrotation Xrotation Yrotation
							JOINT LeftWrist
							{
OFFSET 0 -3.599710 0.000000
CHANNELS 3 Zrotation Xrotation Yrotation
								JOINT lhand
								{
									OFFSET 0 0 0
CHANNELS 3 Zrotation Xrotation Yrotation
									JOINT LFingers
									{
OFFSET 0 -0.628770 0.000000
CHANNELS 3 Zrotation Xrotation Yrotation
										End Site
										{
OFFSET 0 -0.506930 0.000000
										}
									}
								}
								JOINT LThumb
								{
OFFSET 0 0.000000 0.000000
CHANNELS 3 Zrotation Xrotation Yrotation
									End Site
									{
OFFSET 0 -0.514670 0.514670
									}
								}
							}
						}
					}
				}
				JOINT RightCollar
				{
					OFFSET 0 0 0
					CHANNELS 3 Zrotation Yrotation Xrotation
					JOINT RightShoulder
					{
						OFFSET -3.33565 1.14597 0.05047
CHANNELS 3 Zrotation Xrotation Yrotation
						JOINT RightElbow
						{
OFFSET 0 -5.490200 0.000000
CHANNELS 3 Zrotation Xrotation Yrotation
							JOINT RightWrist
							{
OFFSET 0 -3.206590 -0.000000
CHANNELS 3 Zrotation Xrotation Yrotation
								JOINT rhand
								{
									OFFSET 0 0 0
CHANNELS 3 Zrotation Xrotation Yrotation
									JOINT RFingers
									{
OFFSET 0 -0.691880 0.000000
CHANNELS 3 Zrotation Xrotation Yrotation
										End Site
										{
OFFSET 0 -0.557810 0.000000
										}
									}
								}
								JOINT RThumb
								{
OFFSET 0 0.000000 0.000000
CHANNELS 3 Zrotation Xrotation Yrotation
									End Site
									{
OFFSET 0 -0.566330 0.566330
									}
								}
							}
						}
					}
				}
			}
		}
	}
}
MOTION
Frames: 10
Frame Time: 0.008333333333333333
1.072815 17.569139 8.444125 -6.132205 8.765119 8.462887 0.000000 0.000000 0.000000 -14.709574 -35.820735 12.582343 0.020959 -0.933351 -2.565487 -3.752237 32.452513 -20.107766 0.149809 -2.470173 -6.808180 0.000000 0.000000 0.000000 23.628216 22.544962 2.605691 -0.163448 -2.604160 7.178646 0.601595 -20.227269 -23.455899 -0.028825 -1.085487 2.984133 8.383746 -0.496809 2.274239 4.954818 0.478333 -8.916434 0.614145 -0.206675 -10.888277 0.945822 -2.621772 -15.614605 5.017272 -3.956751 1.571986 1.196685 -1.705866 3.385121 0.000000 0.000000 0.000000 10.123682 -11.144062 -85.708418 113.651085 -57.776635 80.329507 64.851069 -41.068757 29.760950 0.000000 0.000000 0.000000 -7.125000 0.000000 0.000000 18.198516 -21.231791 24.504411 0.000000 0.000000 0.000000 -6.957083 -8.906166 71.003905 -132.485045 -51.942666 -95.796713 -21.737941 -1.406838 48.626139 0.000000 0.000000 0.000000 7.125000 0.000000 0.000000 43.400423 77.673189 -34.211312
1.143928 17.549512 8.451324 -5.394008 6.255349 9.201734 0.000000 0.000000 0.000000 -16.079582 -35.742675 13.184886 0.028572 -1.090293 -2.997301 -4.098178 33.939288 -22.469751 0.039806 -1.278498 -3.515528 0.000000 0.000000 0.000000 22.180778 23.934299 1.863958 -0.183671 -2.760422 7.612525 0.565596 -19.444066 -22.422740 -0.004102 -0.401368 1.102792 7.615706 -1.244559 2.352943 5.766204 -0.515693 -9.000726 2.046604 -0.587540 -11.059553 2.361230 -1.206475 -15.086046 2.988887 -2.193679 1.305969 0.407051 -0.930183 3.090652 0.000000 0.000000 0.000000 9.186138 -9.079907 -86.385462 112.713406 -57.957894 79.535534 65.177895 -43.970222 30.847018 0.000000 0.000000 0.000000 -7.125000 0.000000 0.000000 17.976005 -22.772416 24.425538 0.000000 0.000000 0.000000 -8.893452 -6.715235 71.405076 -133.020517 -51.702079 -96.217693 -21.605202 -2.884865 48.541746 0.000000 0.000000 0.000000 7.125000 0.000000 0.000000 43.190168 77.570749 -33.948300
1.213879 17.560256 8.463302 -5.359566 3.803278 9.927360 0.000000 0.000000 0.000000 -16.823372 -36.151444 13.929409 0.036547 -1.233583 -3.391717 -4.665394 36.022506 -25.035146 0.004464 -0.324377 -0.891416 0.000000 0.000000 0.000000 21.396395 25.070940 0.849592 -0.205997 -2.922167 8.062154 0.481586 -18.237114 -21.186727 -0.001765 0.244239 -0.671110 8.149829 -1.856111 1.932606 6.215861 -1.305662 -9.229468 2.340504 -1.001947 -11.110683 3.684778 0.025538 -14.340766 1.276131 -0.684313 1.949894 -0.282517 -0.241841 3.160936 0.000000 0.000000 0.000000 9.520709 -10.026894 -87.718597 113.487472 -57.808516 80.190994 66.542949 -45.030456 30.816292 0.000000 0.000000 0.000000 -7.125000 0.000000 0.000000 18.710779 -23.959979 25.687787 0.000000 0.000000 0.000000 -10.597143 -6.693607 70.996986 -134.385177 -51.064210 -97.283411 -20.578892 -3.411562 48.709012 0.000000 0.000000 0.000000 7.125000 0.000000 0.000000 44.773991 77.251876 -35.008010
1.282136 17.588918 8.477187 -5.733351 1.479429 10.484282 0.000000 0.000000 0.000000 -17.207396 -36.648362 14.707197 0.040227 -1.294356 -3.558983 -5.107196 37.809535 -28.161123 0.023244 0.898966 2.471473 0.000000 0.000000 0.000000 21.140757 25.954090 0.051946 -0.213780 -2.976879 8.214369 0.388235 -16.992453 -20.068013 -0.006393 0.513302 -1.410604 9.189547 -2.514998 1.619454 6.541796 -2.111521 -9.572277 2.243212 -1.480396 -11.398504 5.007679 1.278658 -13.404738 -0.244034 0.878923 3.081143 -0.913565 0.496923 3.425041 0.000000 0.000000 0.000000 10.331380 -12.636990 -88.874945 115.428132 -57.408463 81.829580 67.484801 -45.265530 30.022875 0.000000 0.000000 0.000000 -7.125000 0.000000 0.000000 19.510242 -23.937307 26.877301 0.000000 0.000000 0.000000 -11.814135 -8.982259 70.576822 -135.839114 -50.350137 -98.409078 -21.909368 -1.639043 48.226829 0.000000 0.000000 0.000000 7.125000 0.000000 0.000000 41.722432 77.503216 -32.674009
1.324629 17.628476 8.500991 -4.929776 -1.209727 11.267848 0.000000 0.000000 0.000000 -18.734451 -37.199447 15.016217 0.036320 -1.230187 -3.382353 -5.279006 39.129390 -31.880054 0.138069 2.375578 6.545567 0.000000 0.000000 0.000000 19.412917 27.205652 -0.894256 -0.212316 -2.966457 8.185382 0.333497 -16.019485 -19.051550 -0.012363 0.715960 -1.967662 8.295684 -3.070114 0.768902 6.531529 -3.030347 -9.961344 2.800096 -1.863423 -11.288266 6.680504 2.367730 -12.800160 -1.865217 2.202385 4.987467 -1.510929 1.127688 3.702480 0.000000 0.000000 0.000000 11.173019 -16.107734 -89.069072 117.480645 -56.943733 83.554626 67.849759 -45.088429 29.637708 0.000000 0.000000 0.000000 -7.125000 0.000000 0.000000 19.849019 -23.846554 27.372538 0.000000 0.000000 0.000000 -12.279115 -12.321583 69.397659 -136.744655 -49.884247 -99.104090 -22.418058 -0.076474 49.138228 0.000000 0.000000 0.000000 7.125000 0.000000 0.000000 44.796708 78.254497 -35.861663
1.365640 17.648511 8.527426 -4.888229 -3.918667 11.455237 0.000000 0.000000 0.000000 -19.542987 -36.674473 15.543665 0.034953 -1.206412 -3.316969 -5.191290 39.858116 -34.977185 0.303966 3.524683 9.745213 0.000000 0.000000 0.000000 18.973363 28.261977 -1.044644 -0.206199 -2.923790 8.066544 0.249896 -14.828913 -18.108810 -0.025078 1.015109 -2.790395 7.967509 -3.256107 0.465464 6.654713 -3.342557 -10.065791 3.133609 -1.988207 -11.195226 7.605818 3.008446 -12.541270 -3.260476 3.057993 6.363797 -2.007081 1.516192 4.102785 0.000000 0.000000 0.000000 11.468760 -19.453575 -89.639439 119.166819 -56.526774 84.964517 66.648601 -43.929276 29.584287 0.000000 0.000000 0.000000 -7.125000 0.000000 0.000000 19.219345 -22.649514 26.240841 0.000000 0.000000 0.000000 -12.895988 -15.075236 66.908318 -137.430220 -49.520703 -99.627027 -22.332597 0.665082 50.994045 0.000000 0.000000 0.000000 7.125000 0.000000 0.000000 53.134760 79.144207 -43.886396
1.397733 17.658335 8.553998 -4.784034 -6.856982 11.507995 0.000000 0.000000 0.000000 -20.524167 -35.941170 16.264309 0.035699 -1.219255 -3.352171 -4.862794 40.372992 -38.408702 0.585396 4.888560 13.593128 0.000000 0.000000 0.000000 18.550149 29.307233 -1.152246 -0.207749 -2.934393 8.096237 0.172029 -13.488079 -16.962920 -0.047558 1.405025 -3.864123 7.898272 -3.454161 0.454785 6.597492 -3.627131 -10.227401 3.157600 -2.134343 -11.377053 8.046213 3.761622 -12.128532 -4.405080 4.159146 7.302402 -2.349283 2.020909 4.419591 0.000000 0.000000 0.000000 11.805613 -20.917357 -89.814440 120.607873 -56.145380 86.164098 66.126119 -43.659732 29.857475 0.000000 0.000000 0.000000 -7.125000 0.000000 0.000000 18.840259 -22.481910 25.650874 0.000000 0.000000 0.000000 -12.768711 -16.658866 65.214997 -137.357181 -49.559997 -99.571453 -23.434495 0.491089 50.442408 0.000000 0.000000 0.000000 7.125000 0.000000 0.000000 49.755171 79.357407 -41.096291
1.413888 17.657120 8.587278 -4.514511 -10.268090 11.400622 0.000000 0.000000 0.000000 -21.985866 -35.177085 17.423255 0.037310 -1.246462 -3.427196 -4.107039 40.715611 -42.790825 1.003430 6.361876 17.842076 0.000000 0.000000 0.000000 17.977773 30.295604 -1.457065 -0.226435 -3.062421 8.452578 0.053082 -11.607991 -15.771349 -0.089254 1.920508 -5.286158 7.839213 -3.739343 0.367491 6.216491 -4.072682 -10.343472 2.829697 -2.378649 -11.482732 9.178952 4.691626 -11.336291 -5.672330 5.448594 7.878016 -2.829556 2.630781 4.617210 0.000000 0.000000 0.000000 12.372752 -19.973631 -89.237262 121.249497 -55.967657 86.696508 65.606104 -44.371219 31.934556 0.000000 0.000000 0.000000 -7.125000 0.000000 0.000000 17.787570 -24.361532 24.380160 0.000000 0.000000 0.000000 -11.270872 -16.469146 65.112448 -136.787456 -49.861781 -99.136799 -20.890509 -1.180735 52.168306 0.000000 0.000000 0.000000 7.125000 0.000000 0.000000 59.566571 79.006846 -49.504863
1.420981 17.640558 8.625759 -4.295374 -14.108019 11.338581 0.000000 0.000000 0.000000 -23.559310 -34.431196 18.720520 0.040759 -1.302705 -3.582178 -2.969219 41.084842 -47.788954 1.484568 7.688439 21.776575 0.000000 0.000000 0.000000 17.389987 31.311413 -2.112466 -0.262442 -3.294488 9.099904 -0.107090 -9.038706 -14.691038 -0.144248 2.444639 -6.736299 7.483709 -3.875002 -0.076149 5.975418 -4.380871 -10.255598 2.740958 -2.518837 -11.093879 10.266440 5.763503 -10.726401 -6.829471 6.938354 8.482190 -3.244491 3.343457 4.896572 0.000000 0.000000 0.000000 12.223931 -17.519929 -89.009978 120.954597 -56.050074 86.451914 65.294670 -42.652903 31.794857 0.000000 0.000000 0.000000 -7.125000 0.000000 0.000000 17.677541 -23.933085 24.157683 0.000000 0.000000 0.000000 -9.743609 -15.035405 66.355521 -135.562782 -50.487172 -98.195515 -20.839298 -0.862362 50.230817 0.000000 0.000000 0.000000 7.125000 0.000000 0.000000 50.756006 78.153769 -40.922669
1.430518 17.604585 8.658975 -4.574168 -18.242751 11.535363 0.000000 0.000000 0.000000 -24.634468 -33.776995 19.882999 0.044477 -1.360475 -3.741235 -1.436737 41.517852 -53.164245 2.011532 8.888323 25.447846 0.000000 0.000000 0.000000 17.214993 32.486102 -3.217599 -0.324043 -3.658319 10.117471 -0.266015 -5.931288 -13.717789 -0.197655 2.862930 -7.897305 7.478130 -3.796906 -0.599318 5.982870 -4.370645 -10.105998 2.686490 -2.520805 -10.600728 10.907790 6.790325 -10.081596 -7.763032 8.418430 8.641540 -3.516694 4.048218 5.035563 0.000000 0.000000 0.000000 11.259554 -13.689586 -88.843104 119.916720 -56.331917 85.589641 65.532122 -40.748649 31.122933 0.000000 0.000000 0.000000 -7.125000 0.000000 0.000000 18.059755 -23.395655 24.642153 0.000000 0.000000 0.000000 -8.294665 -12.739894 67.226864 -134.071999 -51.214823 -97.040067 -20.841645 -2.525046 50.203416 0.000000 0.000000 0.000000 7.125000 0.000000 0.000000 50.525148 78.166525 -40.694852
